<mxfile host="app.diagrams.net" agent="Mozilla/5.0 (Windows NT 10.0; Win64; x64) AppleWebKit/537.36 (KHTML, like Gecko) Chrome/136.0.0.0 Safari/537.36" version="26.2.13">
  <diagram name="Страница — 1" id="k59UOaESE-YK-dKAThu2">
    <mxGraphModel>
      <root>
        <mxCell id="0" />
        <mxCell id="1" parent="0" />
        <mxCell id="2" value="Start" style="whiteSpace=wrap;strokeWidth=2;" vertex="1" parent="1">
          <mxGeometry x="604" y="8" width="95" height="54" as="geometry" />
        </mxCell>
        <mxCell id="3" value="Is the weather good?" style="rhombus;strokeWidth=2;whiteSpace=wrap;" vertex="1" parent="1">
          <mxGeometry x="550" y="112" width="202" height="202" as="geometry" />
        </mxCell>
        <mxCell id="4" value="Gather all necessary equipment" style="whiteSpace=wrap;strokeWidth=2;" vertex="1" parent="1">
          <mxGeometry x="264" y="387" width="260" height="54" as="geometry" />
        </mxCell>
        <mxCell id="5" value="Postpone trip" style="whiteSpace=wrap;strokeWidth=2;" vertex="1" parent="1">
          <mxGeometry x="574" y="387" width="155" height="54" as="geometry" />
        </mxCell>
        <mxCell id="6" value="Load the boat" style="whiteSpace=wrap;strokeWidth=2;" vertex="1" parent="1">
          <mxGeometry x="314" y="491" width="160" height="54" as="geometry" />
        </mxCell>
        <mxCell id="7" value="Is the loading complete?" style="rhombus;strokeWidth=2;whiteSpace=wrap;" vertex="1" parent="1">
          <mxGeometry x="280" y="595" width="228" height="228" as="geometry" />
        </mxCell>
        <mxCell id="8" value="Check safety gear" style="whiteSpace=wrap;strokeWidth=2;" vertex="1" parent="1">
          <mxGeometry x="177" y="897" width="188" height="54" as="geometry" />
        </mxCell>
        <mxCell id="9" value="Continue loading" style="whiteSpace=wrap;strokeWidth=2;" vertex="1" parent="1">
          <mxGeometry x="415" y="897" width="181" height="54" as="geometry" />
        </mxCell>
        <mxCell id="10" value="Is safety gear ready?" style="rhombus;strokeWidth=2;whiteSpace=wrap;" vertex="1" parent="1">
          <mxGeometry x="74" y="1001" width="201" height="201" as="geometry" />
        </mxCell>
        <mxCell id="11" value="Start the engine" style="whiteSpace=wrap;strokeWidth=2;" vertex="1" parent="1">
          <mxGeometry x="64" y="1275" width="176" height="54" as="geometry" />
        </mxCell>
        <mxCell id="12" value="Prepare safety gear" style="whiteSpace=wrap;strokeWidth=2;" vertex="1" parent="1">
          <mxGeometry x="290" y="1275" width="200" height="54" as="geometry" />
        </mxCell>
        <mxCell id="13" value="Is the destination ready?" style="whiteSpace=wrap;strokeWidth=2;" vertex="1" parent="1">
          <mxGeometry x="34" y="1379" width="236" height="54" as="geometry" />
        </mxCell>
        <mxCell id="14" value="Set sail" style="whiteSpace=wrap;strokeWidth=2;" vertex="1" parent="1">
          <mxGeometry x="73" y="1506" width="112" height="54" as="geometry" />
        </mxCell>
        <mxCell id="15" value="Wait for clear instructions" style="whiteSpace=wrap;strokeWidth=2;" vertex="1" parent="1">
          <mxGeometry x="235" y="1506" width="247" height="54" as="geometry" />
        </mxCell>
        <mxCell id="16" value="Enjoy the trip" style="whiteSpace=wrap;strokeWidth=2;" vertex="1" parent="1">
          <mxGeometry x="49" y="1610" width="159" height="54" as="geometry" />
        </mxCell>
        <mxCell id="17" value="Is it time to return?" style="rhombus;strokeWidth=2;whiteSpace=wrap;" vertex="1" parent="1">
          <mxGeometry x="32" y="1714" width="194" height="194" as="geometry" />
        </mxCell>
        <mxCell id="18" value="Head back" style="whiteSpace=wrap;strokeWidth=2;" vertex="1" parent="1">
          <mxGeometry x="39" y="1981" width="135" height="54" as="geometry" />
        </mxCell>
        <mxCell id="19" value="Continue enjoying" style="whiteSpace=wrap;strokeWidth=2;" vertex="1" parent="1">
          <mxGeometry x="224" y="1981" width="190" height="54" as="geometry" />
        </mxCell>
        <mxCell id="20" value="Unload the boat" style="whiteSpace=wrap;strokeWidth=2;" vertex="1" parent="1">
          <mxGeometry x="19" y="2085" width="175" height="54" as="geometry" />
        </mxCell>
        <mxCell id="21" value="Pack up equipment" style="whiteSpace=wrap;strokeWidth=2;" vertex="1" parent="1">
          <mxGeometry x="8" y="2189" width="197" height="54" as="geometry" />
        </mxCell>
        <mxCell id="22" value="End" style="whiteSpace=wrap;strokeWidth=2;" vertex="1" parent="1">
          <mxGeometry x="63" y="2293" width="86" height="54" as="geometry" />
        </mxCell>
        <mxCell id="23" value="" style="curved=1;startArrow=none;endArrow=block;exitX=0.5;exitY=1;entryX=0.5;entryY=0;" edge="1" parent="1" source="2" target="3">
          <mxGeometry relative="1" as="geometry">
            <Array as="points" />
          </mxGeometry>
        </mxCell>
        <mxCell id="24" value="Yes" style="curved=1;startArrow=none;endArrow=block;exitX=0;exitY=0.77;entryX=0.5;entryY=0.01;" edge="1" parent="1" source="3" target="4">
          <mxGeometry relative="1" as="geometry">
            <Array as="points">
              <mxPoint x="394" y="351" />
            </Array>
          </mxGeometry>
        </mxCell>
        <mxCell id="25" value="No" style="curved=1;startArrow=none;endArrow=block;exitX=0.5;exitY=1;entryX=0.5;entryY=0.01;" edge="1" parent="1" source="3" target="5">
          <mxGeometry relative="1" as="geometry">
            <Array as="points" />
          </mxGeometry>
        </mxCell>
        <mxCell id="26" value="" style="curved=1;startArrow=none;endArrow=block;exitX=0.5;exitY=1.01;entryX=0.5;entryY=0.01;" edge="1" parent="1" source="4" target="6">
          <mxGeometry relative="1" as="geometry">
            <Array as="points" />
          </mxGeometry>
        </mxCell>
        <mxCell id="27" value="" style="curved=1;startArrow=none;endArrow=block;exitX=0.5;exitY=1.01;entryX=0.5;entryY=0;" edge="1" parent="1" source="6" target="7">
          <mxGeometry relative="1" as="geometry">
            <Array as="points" />
          </mxGeometry>
        </mxCell>
        <mxCell id="28" value="Yes" style="curved=1;startArrow=none;endArrow=block;exitX=0.09;exitY=1;entryX=0.5;entryY=0;" edge="1" parent="1" source="7" target="8">
          <mxGeometry relative="1" as="geometry">
            <Array as="points">
              <mxPoint x="271" y="860" />
            </Array>
          </mxGeometry>
        </mxCell>
        <mxCell id="29" value="No" style="curved=1;startArrow=none;endArrow=block;exitX=0.87;exitY=1;entryX=0.5;entryY=0;" edge="1" parent="1" source="7" target="9">
          <mxGeometry relative="1" as="geometry">
            <Array as="points">
              <mxPoint x="505" y="860" />
            </Array>
          </mxGeometry>
        </mxCell>
        <mxCell id="30" value="" style="curved=1;startArrow=none;endArrow=block;exitX=0.23;exitY=1;entryX=0.5;entryY=0;" edge="1" parent="1" source="8" target="10">
          <mxGeometry relative="1" as="geometry">
            <Array as="points">
              <mxPoint x="174" y="976" />
            </Array>
          </mxGeometry>
        </mxCell>
        <mxCell id="31" value="Yes" style="curved=1;startArrow=none;endArrow=block;exitX=0.42;exitY=1;entryX=0.5;entryY=-0.01;" edge="1" parent="1" source="10" target="11">
          <mxGeometry relative="1" as="geometry">
            <Array as="points">
              <mxPoint x="152" y="1238" />
            </Array>
          </mxGeometry>
        </mxCell>
        <mxCell id="32" value="No" style="curved=1;startArrow=none;endArrow=block;exitX=0.93;exitY=1;entryX=0.29;entryY=-0.01;" edge="1" parent="1" source="10" target="12">
          <mxGeometry relative="1" as="geometry">
            <Array as="points">
              <mxPoint x="293" y="1238" />
            </Array>
          </mxGeometry>
        </mxCell>
        <mxCell id="33" value="" style="curved=1;startArrow=none;endArrow=block;exitX=0.53;exitY=-0.01;entryX=0.87;entryY=1;" edge="1" parent="1" source="12" target="8">
          <mxGeometry relative="1" as="geometry">
            <Array as="points">
              <mxPoint x="405" y="1238" />
              <mxPoint x="405" y="976" />
            </Array>
          </mxGeometry>
        </mxCell>
        <mxCell id="34" value="" style="curved=1;startArrow=none;endArrow=block;exitX=0.5;exitY=0.99;entryX=0.5;entryY=-0.01;" edge="1" parent="1" source="11" target="13">
          <mxGeometry relative="1" as="geometry">
            <Array as="points" />
          </mxGeometry>
        </mxCell>
        <mxCell id="35" value="Yes" style="curved=1;startArrow=none;endArrow=block;exitX=0.46;exitY=0.99;entryX=0.5;entryY=-0.01;" edge="1" parent="1" source="13" target="14">
          <mxGeometry relative="1" as="geometry">
            <Array as="points">
              <mxPoint x="129" y="1469" />
            </Array>
          </mxGeometry>
        </mxCell>
        <mxCell id="36" value="No" style="curved=1;startArrow=none;endArrow=block;exitX=0.71;exitY=0.99;entryX=0.34;entryY=-0.01;" edge="1" parent="1" source="13" target="15">
          <mxGeometry relative="1" as="geometry">
            <Array as="points">
              <mxPoint x="266" y="1469" />
            </Array>
          </mxGeometry>
        </mxCell>
        <mxCell id="37" value="" style="curved=1;startArrow=none;endArrow=block;exitX=0.5;exitY=0.99;entryX=0.5;entryY=-0.01;" edge="1" parent="1" source="14" target="16">
          <mxGeometry relative="1" as="geometry">
            <Array as="points" />
          </mxGeometry>
        </mxCell>
        <mxCell id="38" value="" style="curved=1;startArrow=none;endArrow=block;exitX=0.5;exitY=0.99;entryX=0.5;entryY=0;" edge="1" parent="1" source="16" target="17">
          <mxGeometry relative="1" as="geometry">
            <Array as="points" />
          </mxGeometry>
        </mxCell>
        <mxCell id="39" value="Yes" style="curved=1;startArrow=none;endArrow=block;exitX=0.42;exitY=1;entryX=0.5;entryY=-0.01;" edge="1" parent="1" source="17" target="18">
          <mxGeometry relative="1" as="geometry">
            <Array as="points">
              <mxPoint x="106" y="1944" />
            </Array>
          </mxGeometry>
        </mxCell>
        <mxCell id="40" value="No" style="curved=1;startArrow=none;endArrow=block;exitX=0.9;exitY=1;entryX=0.31;entryY=-0.01;" edge="1" parent="1" source="17" target="19">
          <mxGeometry relative="1" as="geometry">
            <Array as="points">
              <mxPoint x="235" y="1944" />
            </Array>
          </mxGeometry>
        </mxCell>
        <mxCell id="41" value="" style="curved=1;startArrow=none;endArrow=block;exitX=0.5;exitY=0.99;entryX=0.5;entryY=-0.01;" edge="1" parent="1" source="18" target="20">
          <mxGeometry relative="1" as="geometry">
            <Array as="points" />
          </mxGeometry>
        </mxCell>
        <mxCell id="42" value="" style="curved=1;startArrow=none;endArrow=block;exitX=0.5;exitY=0.99;entryX=0.5;entryY=-0.01;" edge="1" parent="1" source="20" target="21">
          <mxGeometry relative="1" as="geometry">
            <Array as="points" />
          </mxGeometry>
        </mxCell>
        <mxCell id="43" value="" style="curved=1;startArrow=none;endArrow=block;exitX=0.5;exitY=0.99;entryX=0.5;entryY=-0.01;" edge="1" parent="1" source="21" target="22">
          <mxGeometry relative="1" as="geometry">
            <Array as="points" />
          </mxGeometry>
        </mxCell>
        <mxCell id="44" value="" style="curved=1;startArrow=none;endArrow=block;exitX=0.53;exitY=-0.01;entryX=1;entryY=0.82;" edge="1" parent="1" source="19" target="17">
          <mxGeometry relative="1" as="geometry">
            <Array as="points">
              <mxPoint x="334" y="1944" />
            </Array>
          </mxGeometry>
        </mxCell>
        <mxCell id="45" value="" style="curved=1;startArrow=none;endArrow=block;exitX=0.53;exitY=-0.01;entryX=0.9;entryY=0.99;" edge="1" parent="1" source="15" target="13">
          <mxGeometry relative="1" as="geometry">
            <Array as="points">
              <mxPoint x="374" y="1469" />
            </Array>
          </mxGeometry>
        </mxCell>
      </root>
    </mxGraphModel>
  </diagram>
</mxfile>
